<svg width="25" height="25" viewBox="0 0 25 25" fill="none" xmlns="http://www.w3.org/2000/svg">
<path d="M24 8.5V16.25C24 19.9028 24 21.7305 22.8646 22.8646C21.7305 24 19.9028 24 16.25 24H8.5C4.84717 24 3.01946 24 1.88538 22.8646C0.75 21.7305 0.750001 19.9028 0.750001 16.25V8.5C0.750001 4.84717 0.75 3.01946 1.88538 1.88537C3.01946 0.75 4.84717 0.75 8.5 0.75H16.25" stroke="white" stroke-width="1.5" stroke-linecap="round"/>
<path d="M8.5 16.25V17.5417H7.20833V16.25H8.5ZM17.9201 5.00346C18.1637 4.76817 18.49 4.63798 18.8287 4.64092C19.1674 4.64386 19.4913 4.7797 19.7308 5.01919C19.9703 5.25868 20.1061 5.58264 20.1091 5.92131C20.112 6.25998 19.9818 6.58626 19.7465 6.82987L17.9201 5.00346ZM9.79167 7.20833V16.25H7.20833V7.20833H9.79167ZM8.5 14.9583H17.5417V17.5417H8.5V14.9583ZM7.58679 15.3368L17.9201 5.00346L19.7465 6.82987L9.41321 17.1632L7.58679 15.3368Z" fill="white"/>
</svg>
