<svg width="25" height="25" viewBox="0 0 25 25" fill="none" xmlns="http://www.w3.org/2000/svg">
<path d="M24 8.5V16.25C24 19.9028 24 21.7305 22.8646 22.8646C21.7305 24 19.9028 24 16.25 24H8.5C4.84717 24 3.01946 24 1.88538 22.8646C0.75 21.7305 0.750001 19.9028 0.750001 16.25V8.5C0.750001 4.84717 0.75 3.01946 1.88538 1.88537C3.01946 0.75 4.84717 0.75 8.5 0.75H16.25" stroke="white" stroke-width="1.5" stroke-linecap="round"/>
<path d="M18.3591 7.04163H19.6508V5.74996H18.3591V7.04163ZM7.11259 16.4618C6.8773 16.7054 6.74711 17.0316 6.75005 17.3703C6.75299 17.709 6.88884 18.033 7.12832 18.2724C7.36781 18.5119 7.69177 18.6478 8.03044 18.6507C8.36911 18.6537 8.69539 18.5235 8.939 18.2882L7.11259 16.4618ZM9.31746 8.33329H18.3591V5.74996H9.31746V8.33329ZM17.0675 7.04163V16.0833H19.6508V7.04163H17.0675ZM17.4459 6.12842L7.11259 16.4618L8.939 18.2882L19.2723 7.95484L17.4459 6.12842Z" fill="white"/>
</svg>
