<svg width="24" height="24" viewBox="0 0 24 24" fill="none" xmlns="http://www.w3.org/2000/svg">
<g clip-path="url(#clip0_655_1316)">
<path d="M20.9598 16.8003V19.8003C20.9598 20.1981 20.7943 20.5796 20.4996 20.861C20.2049 21.1423 19.8052 21.3003 19.3884 21.3003H16.2455M16.2455 1.80029H19.3884C19.8052 1.80029 20.2049 1.95833 20.4996 2.23963C20.7943 2.52094 20.9598 2.90247 20.9598 3.30029V6.30029M0.53125 6.30029V3.30029C0.53125 2.90247 0.696811 2.52094 0.991511 2.23963C1.28621 1.95833 1.68591 1.80029 2.10268 1.80029H5.24554M5.24554 21.3003H2.10268C1.68591 21.3003 1.28621 21.1423 0.991511 20.861C0.696811 20.5796 0.53125 20.1981 0.53125 19.8003V16.8003M10.7455 10.8003C11.5791 10.8003 12.3785 10.4842 12.9679 9.92161C13.5573 9.359 13.8884 8.59594 13.8884 7.80029C13.8884 7.00464 13.5573 6.24158 12.9679 5.67897C12.3785 5.11636 11.5791 4.80029 10.7455 4.80029C9.912 4.80029 9.1126 5.11636 8.5232 5.67897C7.9338 6.24158 7.60268 7.00464 7.60268 7.80029C7.60268 8.59594 7.9338 9.359 8.5232 9.92161C9.1126 10.4842 9.912 10.8003 10.7455 10.8003ZM16.7217 17.5503C16.3155 16.3421 15.5179 15.2881 14.4439 14.5404C13.3699 13.7927 12.0749 13.3898 10.7455 13.3898C9.4162 13.3898 8.12119 13.7927 7.04717 14.5404C5.97314 15.2881 5.17556 16.3421 4.76939 17.5503H16.7217Z" stroke="#2294D6" stroke-width="1.5" stroke-linecap="round" stroke-linejoin="round"/>
</g>
<defs>
<clipPath id="clip0_655_1316">
<rect width="24" height="24" fill="white"/>
</clipPath>
</defs>
</svg>
