<svg width="23" height="23" viewBox="0 0 23 23" fill="none" xmlns="http://www.w3.org/2000/svg">
<path d="M19.0584 12.0089L20.3579 13.1661C20.5978 13.3664 20.7582 13.6459 20.8099 13.9542C20.8616 14.2624 20.8012 14.579 20.6396 14.8466L19.0728 17.5232C18.9512 17.7281 18.7776 17.8972 18.5696 18.0134C18.3592 18.1298 18.123 18.1916 17.8825 18.1931C17.7333 18.194 17.5849 18.1717 17.4426 18.1269L15.7794 17.5778C15.4881 17.7647 15.1853 17.9319 14.8709 18.0795L14.5216 19.7657C14.457 20.0759 14.2843 20.353 14.0343 20.5477C13.7812 20.7458 13.4673 20.8505 13.1459 20.8438H9.9015C9.58009 20.8505 9.26626 20.7458 9.01313 20.5477C8.76369 20.3528 8.59151 20.0757 8.52725 19.7657L8.1765 18.0795C7.86629 17.9299 7.56531 17.7619 7.27519 17.5764L5.60625 18.1269C5.46394 18.1717 5.31554 18.194 5.16638 18.1931C4.9264 18.1913 4.69067 18.1296 4.48069 18.0134C4.27288 17.8976 4.09932 17.729 3.97756 17.5246L2.35463 14.8466C2.1859 14.5766 2.12143 14.2543 2.1733 13.9402C2.22517 13.6261 2.38981 13.3417 2.63638 13.1402L3.93444 11.5001V10.9912L2.63494 9.83399C2.39497 9.63374 2.23462 9.35419 2.18294 9.04594C2.13126 8.73769 2.19165 8.42113 2.35319 8.15356L3.97613 5.47693C4.09769 5.27204 4.27126 5.10293 4.47925 4.98674C4.68923 4.87055 4.92496 4.80878 5.16494 4.80705C5.31276 4.79773 5.46114 4.81131 5.60481 4.8473L7.24069 5.42231C7.53298 5.23543 7.83581 5.0682 8.14919 4.92062L8.49994 3.23443C8.5642 2.92446 8.73638 2.64735 8.98581 2.45243C9.23895 2.25426 9.55278 2.14965 9.87419 2.1563H13.0913C13.4127 2.14965 13.7266 2.25426 13.9797 2.45243C14.2313 2.64937 14.4038 2.9268 14.4656 3.23443L14.8163 4.92062C15.1278 5.06916 15.4282 5.23687 15.7176 5.42374L17.388 4.87462C17.5734 4.81431 17.7693 4.79314 17.9633 4.81244C18.1573 4.83174 18.3451 4.89109 18.515 4.98674C18.7234 5.10462 18.8959 5.27424 19.0181 5.47549L20.6396 8.15356C20.8106 8.42125 20.8784 8.74202 20.8302 9.05599C20.7821 9.36997 20.6213 9.6557 20.378 9.85987L19.0584 10.984V12.0089Z" stroke="#232323" stroke-width="1.2"/>
<path d="M15.0938 11.5C15.0938 12.4531 14.7151 13.3672 14.0412 14.0412C13.3672 14.7151 12.4531 15.0938 11.5 15.0938C10.5469 15.0938 9.63279 14.7151 8.95884 14.0412C8.28488 13.3672 7.90625 12.4531 7.90625 11.5C7.90625 10.5469 8.28488 9.63279 8.95884 8.95884C9.63279 8.28488 10.5469 7.90625 11.5 7.90625C12.4531 7.90625 13.3672 8.28488 14.0412 8.95884C14.7151 9.63279 15.0938 10.5469 15.0938 11.5Z" stroke="#232323" stroke-width="1.2"/>
</svg>
