<svg width="24" height="24" viewBox="0 0 24 24" fill="none" xmlns="http://www.w3.org/2000/svg">
<path d="M7.5 5V3M3.25 8H11M20.75 8H16M3 21L4.138 19.862L16 8L19.308 4.692M14.6 4H9.4C7.16 4 6.04 4 5.184 4.412C4.44214 4.76424 3.83041 5.34168 3.436 6.062C3 6.872 3 7.93 3 10.045V14.957C3 15.784 3 16.449 3.026 17.001M4.138 19.862C4.44567 20.1583 4.79881 20.4034 5.184 20.588C6.04 21 7.16 21 9.4 21H14.6C16.84 21 17.96 21 18.816 20.589C19.558 20.2365 20.1698 19.6587 20.564 18.938C21 18.13 21 17.072 21 14.957V10.045C21 7.93 21 6.872 20.564 6.062C20.268 5.514 19.836 5.044 19.308 4.692M21 3L19.308 4.692" stroke="#232323" stroke-width="1.375" stroke-linecap="round" stroke-linejoin="round"/>
</svg>
