<svg width="24" height="24" viewBox="0 0 24 24" fill="none" xmlns="http://www.w3.org/2000/svg">
<g clip-path="url(#clip0_760_1235)">
<path d="M10.9922 14.8051C11.9974 14.1359 12.7605 13.161 13.1688 12.0245C13.577 10.888 13.6087 9.65036 13.2592 8.49449C12.9096 7.33862 12.1973 6.32593 11.2277 5.60617C10.2581 4.88642 9.08257 4.4978 7.875 4.4978C6.66743 4.4978 5.49191 4.88642 4.52229 5.60617C3.55266 6.32593 2.8404 7.33862 2.49084 8.49449C2.14127 9.65036 2.17296 10.888 2.58122 12.0245C2.98947 13.161 3.75262 14.1359 4.75781 14.8051C2.93952 15.4752 1.38666 16.7154 0.330938 18.3404C0.275453 18.4229 0.236913 18.5155 0.217558 18.613C0.198203 18.7105 0.19842 18.8109 0.218196 18.9083C0.237971 19.0057 0.276911 19.0982 0.332752 19.1804C0.388593 19.2627 0.460221 19.333 0.543472 19.3873C0.626723 19.4416 0.719937 19.4788 0.817696 19.4967C0.915455 19.5147 1.01581 19.513 1.11292 19.4919C1.21004 19.4707 1.30197 19.4304 1.38339 19.3734C1.46481 19.3164 1.53409 19.2438 1.58719 19.1598C2.26818 18.1124 3.20002 17.2517 4.2981 16.6559C5.39617 16.0601 6.62569 15.748 7.875 15.748C9.12431 15.748 10.3538 16.0601 11.4519 16.6559C12.55 17.2517 13.4818 18.1124 14.1628 19.1598C14.2728 19.3233 14.4427 19.4369 14.6359 19.4761C14.829 19.5153 15.0298 19.4769 15.1948 19.3693C15.3599 19.2616 15.4759 19.0934 15.5179 18.9008C15.5598 18.7083 15.5243 18.507 15.4191 18.3404C14.3633 16.7154 12.8105 15.4752 10.9922 14.8051ZM3.75 10.1251C3.75 9.30924 3.99193 8.51171 4.44519 7.83336C4.89845 7.155 5.54269 6.62629 6.29643 6.31408C7.05018 6.00187 7.87958 5.92018 8.67975 6.07935C9.47992 6.23851 10.2149 6.63138 10.7918 7.20827C11.3687 7.78516 11.7616 8.52017 11.9207 9.32034C12.0799 10.1205 11.9982 10.9499 11.686 11.7037C11.3738 12.4574 10.8451 13.1016 10.1667 13.5549C9.48838 14.0082 8.69085 14.2501 7.875 14.2501C6.78136 14.2488 5.73287 13.8138 4.95956 13.0405C4.18624 12.2672 3.75124 11.2187 3.75 10.1251ZM23.4506 19.3782C23.284 19.4868 23.0811 19.5249 22.8865 19.4839C22.6919 19.4429 22.5215 19.3263 22.4128 19.1598C21.7326 18.1118 20.8009 17.2507 19.7026 16.6551C18.6043 16.0596 17.3744 15.7484 16.125 15.7501C15.9261 15.7501 15.7353 15.6711 15.5947 15.5304C15.454 15.3898 15.375 15.199 15.375 15.0001C15.375 14.8012 15.454 14.6104 15.5947 14.4698C15.7353 14.3291 15.9261 14.2501 16.125 14.2501C16.7325 14.2495 17.3323 14.1148 17.8817 13.8555C18.431 13.5962 18.9164 13.2188 19.303 12.7502C19.6896 12.2817 19.9679 11.7335 20.1181 11.1449C20.2682 10.5563 20.2866 9.94174 20.1717 9.34522C20.0569 8.74871 19.8117 8.18492 19.4537 7.69414C19.0957 7.20337 18.6337 6.79772 18.1008 6.50618C17.5679 6.21464 16.9771 6.04441 16.3707 6.00765C15.7644 5.97089 15.1574 6.0685 14.5931 6.29352C14.5011 6.33329 14.4021 6.35422 14.3019 6.35507C14.2016 6.35591 14.1023 6.33666 14.0096 6.29845C13.9169 6.26024 13.8329 6.20385 13.7624 6.1326C13.6919 6.06135 13.6364 5.9767 13.5992 5.88364C13.5619 5.79058 13.5437 5.691 13.5457 5.59079C13.5476 5.49058 13.5696 5.39177 13.6103 5.3002C13.651 5.20862 13.7097 5.12615 13.7829 5.05764C13.8561 4.98913 13.9422 4.93598 14.0363 4.90134C15.3276 4.38632 16.764 4.36779 18.0682 4.84931C19.3724 5.33083 20.4521 6.27829 21.099 7.50891C21.7459 8.73953 21.9141 10.1661 21.5712 11.5134C21.2283 12.8608 20.3986 14.0334 19.2422 14.8051C21.0605 15.4752 22.6133 16.7154 23.6691 18.3404C23.7777 18.507 23.8157 18.7099 23.7748 18.9045C23.7338 19.0992 23.6172 19.2695 23.4506 19.3782Z" fill="black"/>
</g>
<defs>
<clipPath id="clip0_760_1235">
<rect width="24" height="24" fill="white"/>
</clipPath>
</defs>
</svg>
