<svg width="23" height="19" viewBox="0 0 23 19" fill="none" xmlns="http://www.w3.org/2000/svg">
<path fill-rule="evenodd" clip-rule="evenodd" d="M14.699 1.04375C16.5833 1.10417 18.0917 2.63646 18.0917 4.51458V5.99792C18.0917 6.9875 17.5667 8.40521 16.924 9.15938L16.6062 9.53125C16.0896 10.1375 16.251 10.9104 16.974 11.2594L21.9396 13.6552C22.4792 13.9156 22.9167 14.6052 22.9167 15.2042V15.8C22.9145 16.0312 22.8209 16.2521 22.6563 16.4144C22.4918 16.5768 22.2697 16.6675 22.0385 16.6667H21.3365C21.2094 15.4583 20.3969 14.2604 19.3156 13.7323L13.674 10.9802L13.8698 10.749C14.8708 9.56146 15.625 7.50208 15.625 5.94792V4.16667C15.6268 3.05776 15.3049 1.97243 14.699 1.04375ZM7.11562 9.73958C6.35104 8.83125 5.72917 7.13542 5.72917 5.94792V4.16667C5.72917 3.0616 6.16815 2.00179 6.94955 1.22039C7.73096 0.438987 8.79076 0 9.89583 0C11.0009 0 12.0607 0.438987 12.8421 1.22039C13.6235 2.00179 14.0625 3.0616 14.0625 4.16667V5.94792C14.0625 7.13542 13.4375 8.83646 12.675 9.74167L12.299 10.1875C11.6844 10.9156 11.876 11.8417 12.7354 12.2604L18.6312 15.1375C19.2719 15.45 19.7917 16.276 19.7917 16.9948V17.7104C19.7911 17.9865 19.681 18.2511 19.4855 18.446C19.2899 18.6409 19.025 18.7503 18.749 18.75H1.04167C0.76576 18.75 0.501123 18.6405 0.305833 18.4456C0.110542 18.2507 0.000551813 17.9863 0 17.7104V16.9948C0 16.2812 0.51875 15.45 1.16042 15.1365L7.05625 12.2594C7.91146 11.8427 8.11042 10.9177 7.49375 10.1865L7.11562 9.73958Z" fill="white"/>
</svg>
