<svg width="18" height="19" viewBox="0 0 18 19" fill="none" xmlns="http://www.w3.org/2000/svg">
<path d="M16.8734 7.62845L9.6668 0.421821C9.39652 0.151724 9.03006 0 8.64796 0C8.26586 0 7.8994 0.151724 7.62912 0.421821L0.422497 7.62845C0.288008 7.76194 0.181398 7.92084 0.108868 8.0959C0.0363382 8.27096 -0.000665403 8.45869 9.05646e-06 8.64819V17.2961C9.05646e-06 17.4873 0.075936 17.6706 0.211086 17.8057C0.346237 17.9409 0.52954 18.0168 0.720672 18.0168H6.48597C6.6771 18.0168 6.86041 17.9409 6.99556 17.8057C7.13071 17.6706 7.20664 17.4873 7.20664 17.2961V12.2515H10.0893V17.2961C10.0893 17.4873 10.1652 17.6706 10.3004 17.8057C10.4355 17.9409 10.6188 18.0168 10.8099 18.0168H16.5753C16.7664 18.0168 16.9497 17.9409 17.0848 17.8057C17.22 17.6706 17.2959 17.4873 17.2959 17.2961V8.64819C17.2966 8.45869 17.2596 8.27096 17.1871 8.0959C17.1145 7.92084 17.0079 7.76194 16.8734 7.62845ZM15.8546 16.5755H11.5306V11.5308C11.5306 11.3397 11.4547 11.1564 11.3195 11.0213C11.1844 10.8861 11.0011 10.8102 10.8099 10.8102H6.48597C6.29484 10.8102 6.11154 10.8861 5.97639 11.0213C5.84124 11.1564 5.76531 11.3397 5.76531 11.5308V16.5755H1.44133V8.64819L8.64796 1.44156L15.8546 8.64819V16.5755Z" fill="white"/>
</svg>
